<svg width="24" height="30" viewBox="0 0 24 30" fill="none" xmlns="http://www.w3.org/2000/svg">
<path fill-rule="evenodd" clip-rule="evenodd" d="M4.68742 0H14.7174L23.2182 8.86058V26.0945C23.2182 28.2534 21.4715 30 19.3201 30H4.68742C2.52851 30 0.781891 28.2534 0.781891 26.0945V3.90553C0.781853 1.74662 2.52847 0 4.68742 0V0Z" fill="#E03303"/>
<path opacity="0.302" fill-rule="evenodd" clip-rule="evenodd" d="M14.7099 0V8.79311H23.2182L14.7099 0Z" fill="white"/>
<path d="M5.49701 21.4618V16.012H7.81334C8.38305 16.012 8.84034 16.1694 9.18516 16.4918C9.52247 16.8066 9.6949 17.2264 9.6949 17.7586C9.6949 18.2834 9.52247 18.7106 9.18516 19.0255C8.84034 19.3403 8.38305 19.4977 7.81334 19.4977H6.8838V21.4618H5.49701ZM6.88384 18.3134H7.65596C7.86584 18.3134 8.02326 18.2684 8.14323 18.1709C8.25565 18.0735 8.30815 17.931 8.30815 17.7586C8.30815 17.5787 8.25569 17.4438 8.14323 17.3463C8.0233 17.2489 7.86588 17.1964 7.65596 17.1964H6.88384V18.3134ZM10.2796 21.4618V16.012H12.596C13.1657 16.012 13.623 16.1694 13.9678 16.4918C14.3126 16.8066 14.4775 17.2264 14.4775 17.7586C14.4775 18.2834 14.3126 18.7106 13.9678 19.0255C13.623 19.3403 13.1657 19.4977 12.596 19.4977H11.6739V21.4618H10.2796ZM11.6739 18.3134H12.4385C12.6484 18.3134 12.8133 18.2684 12.9258 18.1709C13.0382 18.0735 13.0982 17.931 13.0982 17.7586C13.0982 17.5787 13.0383 17.4438 12.9258 17.3463C12.8133 17.2489 12.6485 17.1964 12.4385 17.1964H11.6739V18.3134ZM16.479 21.4618V17.1964H14.9273V16.012H19.4326V17.1964H17.8733V21.4618H16.479Z" fill="white"/>
</svg>
