<svg width="24" height="30" viewBox="0 0 24 30" fill="none" xmlns="http://www.w3.org/2000/svg">
<path fill-rule="evenodd" clip-rule="evenodd" d="M4.68215 0H14.716L23.2189 8.86259V26.099C23.2189 28.2478 21.4666 30 19.3178 30H4.68215C2.52415 30 0.781128 28.2478 0.781128 26.099V3.90102C0.781128 1.74302 2.52415 0 4.68215 0V0Z" fill="#9900CC"/>
<path opacity="0.302" fill-rule="evenodd" clip-rule="evenodd" d="M14.7067 0V8.78882H23.2188L14.7067 0Z" fill="white"/>
<path d="M14.6791 19.7172C14.9649 19.2376 15.1586 18.629 15.1955 18.0295C15.214 17.6422 15.131 17.2364 14.9465 16.8583C14.6514 16.2589 14.1534 15.9269 13.6646 15.5948C13.3049 15.3551 12.9637 15.1245 12.7239 14.8017L12.6778 14.7464C12.5395 14.5527 12.3735 14.3314 12.3458 14.1469C12.3273 13.9625 12.1521 13.8334 11.9769 13.8426C11.7832 13.8611 11.6449 14.0086 11.6449 14.2023V20.5288C11.3498 20.3443 10.9809 20.2336 10.5751 20.2336C9.59753 20.2336 8.80441 20.87 8.80441 21.6539C8.80441 22.4377 9.59753 23.0741 10.5751 23.0741C11.5527 23.0741 12.355 22.4377 12.355 21.6539V17.5131C12.8899 17.7252 13.7568 18.2416 13.9966 19.4497C13.9505 19.5143 13.9135 19.588 13.8582 19.6434C13.7291 19.791 13.7476 20.0123 13.8951 20.1506C14.0427 20.2797 14.264 20.2613 14.3931 20.1137C14.4853 20.003 14.5776 19.8831 14.6513 19.7448C14.6606 19.7356 14.6698 19.7264 14.6791 19.7172Z" fill="white"/>
</svg>
