<svg width="24" height="30" viewBox="0 0 24 30" fill="none" xmlns="http://www.w3.org/2000/svg">
<path fill-rule="evenodd" clip-rule="evenodd" d="M4.68067 0H14.7208L23.2172 8.86861V26.0912C23.2172 28.2482 21.4763 30 19.3194 30H4.68067C2.53468 30 0.782867 28.2482 0.782867 26.0912V3.8978C0.78283 1.75181 2.53468 0 4.68067 0V0Z" fill="#00733B"/>
<path opacity="0.302" fill-rule="evenodd" clip-rule="evenodd" d="M14.7098 0V8.79197H23.2171L14.7098 0Z" fill="white"/>
<path d="M10.1113 21.8431H8.6551L7.65877 20.1679L6.6624 21.8431H5.19525L6.92519 18.9307L5.40331 16.4015H6.87042L7.65873 17.7153L8.43608 16.4015H9.90323L8.39227 18.9416L10.1113 21.8431ZM10.6259 21.8431V16.4015H12.0164V20.6606H14.3814V21.8431H10.6259V21.8431ZM16.6806 21.9088C16.1332 21.9088 15.6514 21.7336 15.2354 21.3942C14.8303 21.0657 14.6004 20.6497 14.5675 20.157L15.7609 19.8066C15.7938 20.0694 15.9033 20.2993 16.0894 20.4745C16.2865 20.6497 16.5055 20.7373 16.7464 20.7373C16.9434 20.7373 17.1077 20.6935 17.239 20.6059C17.3595 20.5183 17.4252 20.3979 17.4252 20.2555C17.4252 20.1351 17.3704 20.0365 17.2719 19.949C17.1733 19.8723 17.0419 19.8066 16.8887 19.7519C16.7354 19.6971 16.5493 19.6424 16.3631 19.5986C16.166 19.5439 15.9689 19.4782 15.7828 19.3906C15.5857 19.3139 15.4106 19.2154 15.2573 19.095C15.093 18.9854 14.9726 18.8212 14.874 18.6132C14.7755 18.4161 14.7208 18.1752 14.7208 17.9015C14.7208 17.4526 14.9069 17.0803 15.2901 16.7847C15.6733 16.4781 16.1332 16.3358 16.6696 16.3358C17.2061 16.3358 17.6769 16.4672 18.0711 16.719C18.4653 16.9818 18.7171 17.3212 18.8156 17.7373L17.5675 18.2628C17.5127 18.0329 17.4032 17.8468 17.2499 17.7044C17.0966 17.5731 16.8996 17.4964 16.6696 17.4964C16.4944 17.4964 16.3631 17.5402 16.2536 17.6059C16.155 17.6716 16.1113 17.7702 16.1113 17.8906C16.1113 18.0001 16.177 18.0986 16.3083 18.1753C16.4397 18.241 16.6149 18.2957 16.812 18.3286C17.009 18.3614 17.228 18.4162 17.4579 18.4928C17.6988 18.5804 17.9069 18.668 18.1149 18.7884C18.3119 18.8979 18.4762 19.084 18.6076 19.3249C18.7499 19.5768 18.8156 19.8724 18.8156 20.2118C18.8156 20.7154 18.6185 21.1315 18.2243 21.438C17.8302 21.7446 17.3157 21.9088 16.6806 21.9088Z" fill="white"/>
</svg>
